<svg width="155" height="155" viewBox="0 0 155 155" fill="none" xmlns="http://www.w3.org/2000/svg">
<circle cx="77.5" cy="77.5" r="77.5" fill="white"/>
<path d="M20.996 69.436C20.996 70.012 20.792 70.476 20.384 70.828C19.976 71.18 19.456 71.4 18.824 71.488V71.524C19.608 71.604 20.208 71.824 20.624 72.184C21.048 72.536 21.26 72.996 21.26 73.564C21.26 74.06 21.124 74.504 20.852 74.896C20.58 75.28 20.176 75.58 19.64 75.796C19.104 76.012 18.44 76.12 17.648 76.12C17 76.12 16.424 76.08 15.92 76C15.424 75.92 14.992 75.804 14.624 75.652V74.128C14.872 74.248 15.152 74.352 15.464 74.44C15.776 74.52 16.092 74.584 16.412 74.632C16.732 74.672 17.028 74.692 17.3 74.692C18.06 74.692 18.608 74.584 18.944 74.368C19.288 74.144 19.46 73.832 19.46 73.432C19.46 73.024 19.212 72.728 18.716 72.544C18.22 72.352 17.552 72.256 16.712 72.256H15.908V70.84H16.628C17.308 70.84 17.836 70.796 18.212 70.708C18.588 70.62 18.852 70.492 19.004 70.324C19.156 70.156 19.232 69.956 19.232 69.724C19.232 69.428 19.1 69.196 18.836 69.028C18.58 68.852 18.192 68.764 17.672 68.764C17.232 68.764 16.816 68.828 16.424 68.956C16.04 69.084 15.68 69.252 15.344 69.46L14.552 68.248C14.848 68.056 15.16 67.892 15.488 67.756C15.824 67.612 16.192 67.504 16.592 67.432C16.992 67.352 17.436 67.312 17.924 67.312C18.572 67.312 19.124 67.404 19.58 67.588C20.036 67.772 20.384 68.024 20.624 68.344C20.872 68.656 20.996 69.02 20.996 69.436ZM25.4053 69.316C26.2853 69.316 26.9573 69.508 27.4213 69.892C27.8933 70.268 28.1293 70.848 28.1293 71.632V76H26.8813L26.5333 75.112H26.4853C26.3013 75.344 26.1093 75.536 25.9093 75.688C25.7173 75.84 25.4933 75.948 25.2373 76.012C24.9893 76.084 24.6813 76.12 24.3133 76.12C23.9293 76.12 23.5813 76.048 23.2693 75.904C22.9653 75.752 22.7253 75.524 22.5493 75.22C22.3733 74.908 22.2853 74.516 22.2853 74.044C22.2853 73.348 22.5293 72.836 23.0173 72.508C23.5053 72.172 24.2373 71.988 25.2133 71.956L26.3533 71.92V71.632C26.3533 71.288 26.2613 71.036 26.0773 70.876C25.9013 70.716 25.6533 70.636 25.3333 70.636C25.0133 70.636 24.7013 70.684 24.3973 70.78C24.0933 70.868 23.7893 70.98 23.4853 71.116L22.8973 69.904C23.2493 69.72 23.6373 69.576 24.0613 69.472C24.4933 69.368 24.9413 69.316 25.4053 69.316ZM25.6573 72.988C25.0813 73.004 24.6813 73.108 24.4573 73.3C24.2333 73.492 24.1213 73.744 24.1213 74.056C24.1213 74.328 24.2013 74.524 24.3613 74.644C24.5213 74.756 24.7293 74.812 24.9853 74.812C25.3693 74.812 25.6933 74.7 25.9573 74.476C26.2213 74.244 26.3533 73.92 26.3533 73.504V72.964L25.6573 72.988ZM34.4834 69.448V70.792H31.7474V76H29.9594V69.448H34.4834ZM39.3379 69.328C40.0739 69.328 40.6699 69.616 41.1259 70.192C41.5819 70.76 41.8099 71.6 41.8099 72.712C41.8099 73.456 41.7019 74.084 41.4859 74.596C41.2699 75.1 40.9739 75.48 40.5979 75.736C40.2219 75.992 39.7859 76.12 39.2899 76.12C38.9779 76.12 38.7059 76.08 38.4739 76C38.2499 75.92 38.0579 75.816 37.8979 75.688C37.7379 75.56 37.5979 75.424 37.4779 75.28H37.3819C37.4139 75.432 37.4379 75.592 37.4539 75.76C37.4699 75.92 37.4779 76.08 37.4779 76.24V78.88H35.6899V69.448H37.1419L37.3939 70.3H37.4779C37.5979 70.124 37.7419 69.964 37.9099 69.82C38.0779 69.668 38.2779 69.548 38.5099 69.46C38.7499 69.372 39.0259 69.328 39.3379 69.328ZM38.7619 70.756C38.4499 70.756 38.2019 70.82 38.0179 70.948C37.8339 71.076 37.6979 71.272 37.6099 71.536C37.5299 71.792 37.4859 72.116 37.4779 72.508V72.7C37.4779 73.124 37.5179 73.484 37.5979 73.78C37.6779 74.068 37.8139 74.288 38.0059 74.44C38.1979 74.592 38.4579 74.668 38.7859 74.668C39.0579 74.668 39.2819 74.592 39.4579 74.44C39.6339 74.288 39.7659 74.064 39.8539 73.768C39.9419 73.472 39.9859 73.112 39.9859 72.688C39.9859 72.048 39.8859 71.568 39.6859 71.248C39.4939 70.92 39.1859 70.756 38.7619 70.756ZM42.2305 69.448H44.1865L45.4225 73.132C45.4625 73.252 45.4945 73.372 45.5185 73.492C45.5505 73.612 45.5745 73.736 45.5905 73.864C45.6145 73.992 45.6305 74.128 45.6385 74.272H45.6745C45.6985 74.064 45.7305 73.868 45.7705 73.684C45.8185 73.492 45.8705 73.308 45.9265 73.132L47.1385 69.448H49.0585L46.2865 76.84C46.1185 77.288 45.8985 77.664 45.6265 77.968C45.3625 78.272 45.0545 78.5 44.7025 78.652C44.3505 78.804 43.9665 78.88 43.5505 78.88C43.3505 78.88 43.1745 78.868 43.0225 78.844C42.8785 78.828 42.7505 78.808 42.6385 78.784V77.368C42.7265 77.384 42.8305 77.4 42.9505 77.416C43.0785 77.432 43.2105 77.44 43.3465 77.44C43.5945 77.44 43.8065 77.388 43.9825 77.284C44.1665 77.18 44.3185 77.036 44.4385 76.852C44.5585 76.676 44.6545 76.484 44.7265 76.276L44.8345 75.952L42.2305 69.448ZM52.3865 69.328C52.8585 69.328 53.2985 69.392 53.7065 69.52C54.1225 69.64 54.4545 69.828 54.7025 70.084C54.9585 70.34 55.0865 70.668 55.0865 71.068C55.0865 71.46 54.9665 71.772 54.7265 72.004C54.4945 72.236 54.1785 72.404 53.7785 72.508V72.568C54.0585 72.632 54.3105 72.724 54.5345 72.844C54.7585 72.956 54.9345 73.112 55.0625 73.312C55.1985 73.504 55.2665 73.764 55.2665 74.092C55.2665 74.452 55.1505 74.788 54.9185 75.1C54.6945 75.404 54.3425 75.652 53.8625 75.844C53.3905 76.028 52.7825 76.12 52.0385 76.12C51.6865 76.12 51.3545 76.104 51.0425 76.072C50.7305 76.04 50.4465 75.996 50.1905 75.94C49.9345 75.876 49.7105 75.8 49.5185 75.712V74.236C49.7905 74.364 50.1225 74.48 50.5145 74.584C50.9145 74.688 51.3385 74.74 51.7865 74.74C52.1145 74.74 52.4065 74.716 52.6625 74.668C52.9265 74.62 53.1345 74.54 53.2865 74.428C53.4465 74.316 53.5265 74.168 53.5265 73.984C53.5265 73.808 53.4585 73.664 53.3225 73.552C53.1865 73.432 52.9825 73.344 52.7105 73.288C52.4385 73.232 52.0905 73.204 51.6665 73.204H50.9705V71.968H51.6305C52.2225 71.968 52.6785 71.92 52.9985 71.824C53.3265 71.728 53.4905 71.548 53.4905 71.284C53.4905 71.076 53.3865 70.92 53.1785 70.816C52.9705 70.704 52.6305 70.648 52.1585 70.648C51.8465 70.648 51.5065 70.684 51.1385 70.756C50.7705 70.828 50.4225 70.932 50.0945 71.068L49.5665 69.82C49.9425 69.676 50.3545 69.56 50.8025 69.472C51.2505 69.376 51.7785 69.328 52.3865 69.328ZM58.3828 72.04C58.3828 72.176 58.3748 72.344 58.3588 72.544C58.3508 72.744 58.3388 72.948 58.3228 73.156C58.3148 73.364 58.3028 73.548 58.2868 73.708C58.2708 73.868 58.2588 73.98 58.2508 74.044L61.2748 69.448H63.4228V76H61.6948V73.384C61.6948 73.168 61.7028 72.932 61.7188 72.676C61.7348 72.412 61.7508 72.168 61.7668 71.944C61.7908 71.712 61.8068 71.536 61.8148 71.416L58.8027 76H56.6548V69.448H58.3828V72.04ZM70.7155 70.792H68.5675V76H66.7795V70.792H64.6315V69.448H70.7155V70.792ZM74.9723 71.98C75.6443 71.98 76.2003 72.052 76.6403 72.196C77.0803 72.332 77.4043 72.544 77.6123 72.832C77.8283 73.12 77.9363 73.48 77.9363 73.912C77.9363 74.336 77.8363 74.704 77.6363 75.016C77.4443 75.328 77.1363 75.572 76.7123 75.748C76.2883 75.916 75.7323 76 75.0443 76H71.9243V69.448H73.7123V71.98H74.9723ZM76.1483 73.936C76.1483 73.68 76.0443 73.496 75.8363 73.384C75.6363 73.272 75.3363 73.216 74.9363 73.216H73.7123V74.764H74.9603C75.3123 74.764 75.5963 74.7 75.8123 74.572C76.0363 74.444 76.1483 74.232 76.1483 73.936ZM16.664 86.04C16.664 86.176 16.656 86.344 16.64 86.544C16.632 86.744 16.62 86.948 16.604 87.156C16.596 87.364 16.584 87.548 16.568 87.708C16.552 87.868 16.54 87.98 16.532 88.044L19.556 83.448H21.704V90H19.976V87.384C19.976 87.168 19.984 86.932 20 86.676C20.016 86.412 20.032 86.168 20.048 85.944C20.072 85.712 20.088 85.536 20.096 85.416L17.084 90H14.936V83.448H16.664V86.04ZM25.9607 83.328C26.4327 83.328 26.8727 83.392 27.2807 83.52C27.6967 83.64 28.0287 83.828 28.2767 84.084C28.5327 84.34 28.6607 84.668 28.6607 85.068C28.6607 85.46 28.5407 85.772 28.3007 86.004C28.0687 86.236 27.7527 86.404 27.3527 86.508V86.568C27.6327 86.632 27.8847 86.724 28.1087 86.844C28.3327 86.956 28.5087 87.112 28.6367 87.312C28.7727 87.504 28.8407 87.764 28.8407 88.092C28.8407 88.452 28.7247 88.788 28.4927 89.1C28.2687 89.404 27.9167 89.652 27.4367 89.844C26.9647 90.028 26.3567 90.12 25.6127 90.12C25.2607 90.12 24.9287 90.104 24.6167 90.072C24.3047 90.04 24.0207 89.996 23.7647 89.94C23.5087 89.876 23.2847 89.8 23.0927 89.712V88.236C23.3647 88.364 23.6967 88.48 24.0887 88.584C24.4887 88.688 24.9127 88.74 25.3607 88.74C25.6887 88.74 25.9807 88.716 26.2367 88.668C26.5007 88.62 26.7087 88.54 26.8607 88.428C27.0207 88.316 27.1007 88.168 27.1007 87.984C27.1007 87.808 27.0327 87.664 26.8967 87.552C26.7607 87.432 26.5567 87.344 26.2847 87.288C26.0127 87.232 25.6647 87.204 25.2407 87.204H24.5447V85.968H25.2047C25.7967 85.968 26.2527 85.92 26.5727 85.824C26.9007 85.728 27.0647 85.548 27.0647 85.284C27.0647 85.076 26.9607 84.92 26.7527 84.816C26.5447 84.704 26.2047 84.648 25.7327 84.648C25.4207 84.648 25.0807 84.684 24.7127 84.756C24.3447 84.828 23.9967 84.932 23.6687 85.068L23.1407 83.82C23.5167 83.676 23.9287 83.56 24.3767 83.472C24.8247 83.376 25.3527 83.328 25.9607 83.328ZM36.181 86.712C36.181 87.256 36.105 87.74 35.953 88.164C35.809 88.588 35.597 88.948 35.317 89.244C35.045 89.532 34.713 89.752 34.321 89.904C33.929 90.048 33.485 90.12 32.989 90.12C32.533 90.12 32.109 90.048 31.717 89.904C31.333 89.752 31.001 89.532 30.721 89.244C30.441 88.948 30.221 88.588 30.061 88.164C29.909 87.74 29.833 87.256 29.833 86.712C29.833 85.984 29.961 85.372 30.217 84.876C30.473 84.372 30.841 83.988 31.321 83.724C31.801 83.46 32.369 83.328 33.025 83.328C33.641 83.328 34.185 83.46 34.657 83.724C35.129 83.988 35.501 84.372 35.773 84.876C36.045 85.372 36.181 85.984 36.181 86.712ZM31.657 86.712C31.657 87.144 31.701 87.508 31.789 87.804C31.885 88.092 32.033 88.312 32.233 88.464C32.433 88.608 32.693 88.68 33.013 88.68C33.333 88.68 33.589 88.608 33.781 88.464C33.981 88.312 34.125 88.092 34.213 87.804C34.309 87.508 34.357 87.144 34.357 86.712C34.357 86.28 34.309 85.92 34.213 85.632C34.125 85.344 33.981 85.128 33.781 84.984C33.581 84.84 33.321 84.768 33.001 84.768C32.529 84.768 32.185 84.932 31.969 85.26C31.761 85.58 31.657 86.064 31.657 86.712ZM37.2627 86.076C37.2627 85.108 37.3827 84.288 37.6227 83.616C37.8627 82.936 38.2427 82.396 38.7627 81.996C39.2827 81.588 39.9627 81.312 40.8027 81.168C41.2267 81.096 41.6547 81.036 42.0867 80.988C42.5267 80.932 42.9787 80.876 43.4427 80.82L43.6467 82.38C43.4467 82.404 43.2267 82.432 42.9867 82.464C42.7467 82.488 42.5027 82.516 42.2547 82.548C42.0147 82.572 41.7827 82.6 41.5587 82.632C41.3347 82.664 41.1307 82.692 40.9467 82.716C40.6507 82.764 40.3907 82.832 40.1667 82.92C39.9427 83 39.7547 83.116 39.6027 83.268C39.4507 83.42 39.3307 83.628 39.2427 83.892C39.1627 84.148 39.1107 84.48 39.0867 84.888H39.1707C39.2667 84.736 39.3987 84.584 39.5667 84.432C39.7427 84.28 39.9587 84.152 40.2147 84.048C40.4707 83.944 40.7627 83.892 41.0907 83.892C41.6107 83.892 42.0627 84 42.4467 84.216C42.8307 84.432 43.1267 84.752 43.3347 85.176C43.5427 85.6 43.6467 86.128 43.6467 86.76C43.6467 87.504 43.5107 88.124 43.2387 88.62C42.9667 89.116 42.5907 89.492 42.1107 89.748C41.6307 89.996 41.0747 90.12 40.4427 90.12C39.9627 90.12 39.5267 90.032 39.1347 89.856C38.7427 89.68 38.4067 89.42 38.1267 89.076C37.8467 88.732 37.6307 88.308 37.4787 87.804C37.3347 87.3 37.2627 86.724 37.2627 86.076ZM40.5507 88.668C40.8067 88.668 41.0267 88.612 41.2107 88.5C41.4027 88.388 41.5507 88.204 41.6547 87.948C41.7667 87.692 41.8227 87.348 41.8227 86.916C41.8227 86.396 41.7347 85.984 41.5587 85.68C41.3907 85.368 41.0947 85.212 40.6707 85.212C40.4147 85.212 40.1747 85.276 39.9507 85.404C39.7347 85.524 39.5507 85.664 39.3987 85.824C39.2467 85.976 39.1427 86.108 39.0867 86.22C39.0867 86.532 39.1107 86.836 39.1587 87.132C39.2067 87.42 39.2867 87.68 39.3987 87.912C39.5107 88.144 39.6587 88.328 39.8427 88.464C40.0347 88.6 40.2707 88.668 40.5507 88.668ZM48.7715 83.328C49.5075 83.328 50.1035 83.616 50.5595 84.192C51.0155 84.76 51.2435 85.6 51.2435 86.712C51.2435 87.456 51.1355 88.084 50.9195 88.596C50.7035 89.1 50.4075 89.48 50.0315 89.736C49.6555 89.992 49.2195 90.12 48.7235 90.12C48.4115 90.12 48.1395 90.08 47.9075 90C47.6835 89.92 47.4915 89.816 47.3315 89.688C47.1715 89.56 47.0315 89.424 46.9115 89.28H46.8155C46.8475 89.432 46.8715 89.592 46.8875 89.76C46.9035 89.92 46.9115 90.08 46.9115 90.24V92.88H45.1235V83.448H46.5755L46.8275 84.3H46.9115C47.0315 84.124 47.1755 83.964 47.3435 83.82C47.5115 83.668 47.7115 83.548 47.9435 83.46C48.1835 83.372 48.4595 83.328 48.7715 83.328ZM48.1955 84.756C47.8835 84.756 47.6355 84.82 47.4515 84.948C47.2675 85.076 47.1315 85.272 47.0435 85.536C46.9635 85.792 46.9195 86.116 46.9115 86.508V86.7C46.9115 87.124 46.9515 87.484 47.0315 87.78C47.1115 88.068 47.2475 88.288 47.4395 88.44C47.6315 88.592 47.8915 88.668 48.2195 88.668C48.4915 88.668 48.7155 88.592 48.8915 88.44C49.0675 88.288 49.1995 88.064 49.2875 87.768C49.3755 87.472 49.4195 87.112 49.4195 86.688C49.4195 86.048 49.3195 85.568 49.1195 85.248C48.9275 84.92 48.6195 84.756 48.1955 84.756ZM55.4053 83.316C56.2853 83.316 56.9573 83.508 57.4213 83.892C57.8933 84.268 58.1293 84.848 58.1293 85.632V90H56.8813L56.5333 89.112H56.4853C56.3013 89.344 56.1093 89.536 55.9093 89.688C55.7173 89.84 55.4933 89.948 55.2373 90.012C54.9893 90.084 54.6813 90.12 54.3133 90.12C53.9293 90.12 53.5813 90.048 53.2693 89.904C52.9653 89.752 52.7253 89.524 52.5493 89.22C52.3733 88.908 52.2853 88.516 52.2853 88.044C52.2853 87.348 52.5293 86.836 53.0173 86.508C53.5053 86.172 54.2373 85.988 55.2133 85.956L56.3533 85.92V85.632C56.3533 85.288 56.2613 85.036 56.0773 84.876C55.9013 84.716 55.6533 84.636 55.3333 84.636C55.0133 84.636 54.7013 84.684 54.3973 84.78C54.0933 84.868 53.7893 84.98 53.4853 85.116L52.8973 83.904C53.2493 83.72 53.6373 83.576 54.0613 83.472C54.4933 83.368 54.9413 83.316 55.4053 83.316ZM55.6573 86.988C55.0813 87.004 54.6813 87.108 54.4573 87.3C54.2333 87.492 54.1213 87.744 54.1213 88.056C54.1213 88.328 54.2013 88.524 54.3613 88.644C54.5213 88.756 54.7293 88.812 54.9853 88.812C55.3693 88.812 55.6933 88.7 55.9573 88.476C56.2213 88.244 56.3533 87.92 56.3533 87.504V86.964L55.6573 86.988ZM69.2714 83.448L66.8594 86.592L69.4994 90H67.5914L65.0954 86.676V90H63.4274V86.676L60.9314 90H59.0234L61.6634 86.592L59.2514 83.448H61.0994L63.4274 86.628V83.448H65.0954V86.628L67.4234 83.448H69.2714ZM72.9016 83.328C73.5096 83.328 74.0296 83.444 74.4616 83.676C74.9016 83.908 75.2416 84.244 75.4816 84.684C75.7216 85.124 75.8416 85.664 75.8416 86.304V87.168H71.6176C71.6336 87.672 71.7816 88.068 72.0616 88.356C72.3496 88.644 72.7456 88.788 73.2496 88.788C73.6736 88.788 74.0576 88.748 74.4016 88.668C74.7456 88.58 75.1016 88.448 75.4696 88.272V89.652C75.1496 89.812 74.8096 89.928 74.4496 90C74.0976 90.08 73.6696 90.12 73.1656 90.12C72.5096 90.12 71.9296 90 71.4256 89.76C70.9216 89.512 70.5256 89.14 70.2376 88.644C69.9496 88.148 69.8056 87.524 69.8056 86.772C69.8056 86.004 69.9336 85.368 70.1896 84.864C70.4536 84.352 70.8176 83.968 71.2816 83.712C71.7456 83.456 72.2856 83.328 72.9016 83.328ZM72.9136 84.6C72.5696 84.6 72.2816 84.712 72.0496 84.936C71.8256 85.16 71.6936 85.508 71.6536 85.98H74.1616C74.1616 85.716 74.1136 85.48 74.0176 85.272C73.9296 85.064 73.7936 84.9 73.6096 84.78C73.4256 84.66 73.1936 84.6 72.9136 84.6ZM79.0795 83.448V85.968H81.5755V83.448H83.3635V90H81.5755V87.3H79.0795V90H77.2915V83.448H79.0795ZM86.9648 86.04C86.9648 86.176 86.9568 86.344 86.9408 86.544C86.9328 86.744 86.9208 86.948 86.9048 87.156C86.8968 87.364 86.8848 87.548 86.8688 87.708C86.8528 87.868 86.8408 87.98 86.8328 88.044L89.8568 83.448H92.0048V90H90.2768V87.384C90.2768 87.168 90.2848 86.932 90.3008 86.676C90.3168 86.412 90.3328 86.168 90.3488 85.944C90.3728 85.712 90.3888 85.536 90.3968 85.416L87.3848 90H85.2368V83.448H86.9648V86.04ZM96.5735 83.328C97.1815 83.328 97.7015 83.444 98.1335 83.676C98.5735 83.908 98.9135 84.244 99.1535 84.684C99.3935 85.124 99.5135 85.664 99.5135 86.304V87.168H95.2895C95.3055 87.672 95.4535 88.068 95.7335 88.356C96.0215 88.644 96.4175 88.788 96.9215 88.788C97.3455 88.788 97.7295 88.748 98.0735 88.668C98.4175 88.58 98.7735 88.448 99.1415 88.272V89.652C98.8215 89.812 98.4815 89.928 98.1215 90C97.7695 90.08 97.3415 90.12 96.8375 90.12C96.1815 90.12 95.6015 90 95.0975 89.76C94.5935 89.512 94.1975 89.14 93.9095 88.644C93.6215 88.148 93.4775 87.524 93.4775 86.772C93.4775 86.004 93.6055 85.368 93.8615 84.864C94.1255 84.352 94.4895 83.968 94.9535 83.712C95.4175 83.456 95.9575 83.328 96.5735 83.328ZM96.5855 84.6C96.2415 84.6 95.9535 84.712 95.7215 84.936C95.4975 85.16 95.3655 85.508 95.3255 85.98H97.8335C97.8335 85.716 97.7855 85.48 97.6895 85.272C97.6015 85.064 97.4655 84.9 97.2815 84.78C97.0975 84.66 96.8655 84.6 96.5855 84.6Z" fill="#0B4436"/>
</svg>
